<svg height="480pt" viewBox="0 0 480 480" width="480pt" xmlns="http://www.w3.org/2000/svg"><path d="m456 0h-432c-13.253906 0-24 10.746094-24 24v336c0 13.253906 10.746094 24 24 24h173.753906l-12 48h-129.753906c-13.253906 0-24 10.746094-24 24s10.746094 24 24 24h368c13.253906 0 24-10.746094 24-24s-10.746094-24-24-24h-129.753906l-12-48h173.753906c13.253906 0 24-10.746094 24-24v-336c0-13.253906-10.746094-24-24-24zm-440 80h448v224h-448zm448-56v40h-115.054688l-24-48h131.054688c4.417969 0 8 3.582031 8 8zm-156.945312-8 24 48h-62.109376l-24-48zm-291.054688 8c0-4.417969 3.582031-8 8-8h203.054688l24 48h-235.054688zm416 432c0 4.417969-3.582031 8-8 8h-368c-4.417969 0-8-3.582031-8-8s3.582031-8 8-8h368c4.417969 0 8 3.582031 8 8zm-154.246094-24h-75.507812l12-48h51.507812zm186.246094-72c0 4.417969-3.582031 8-8 8h-432c-4.417969 0-8-3.582031-8-8v-40h448zm0 0"/><path d="m88 200h16v-48h-16v16h-16v-32h-16v48h32zm0 0"/><path d="m216 184v16h16v-48h-16v16h-16v-32h-16v48zm0 0"/><path d="m128 200h32c4.417969 0 8-3.582031 8-8v-48c0-4.417969-3.582031-8-8-8h-32c-4.417969 0-8 3.582031-8 8v48c0 4.417969 3.582031 8 8 8zm8-48h16v32h-16zm0 0"/><path d="m232 216h-176c-4.417969 0-8 3.582031-8 8v32c0 4.417969 3.582031 8 8 8h176c4.417969 0 8-3.582031 8-8v-32c0-4.417969-3.582031-8-8-8zm-8 32h-160v-16h160zm0 0"/><path d="m424 216h-144c-4.417969 0-8 3.582031-8 8s3.582031 8 8 8h144c4.417969 0 8-3.582031 8-8s-3.582031-8-8-8zm0 0"/><path d="m312 248h-32c-4.417969 0-8 3.582031-8 8s3.582031 8 8 8h32c4.417969 0 8-3.582031 8-8s-3.582031-8-8-8zm0 0"/><path d="m424 248h-80c-4.417969 0-8 3.582031-8 8s3.582031 8 8 8h80c4.417969 0 8-3.582031 8-8s-3.582031-8-8-8zm0 0"/><path d="m104 32h-64c-4.417969 0-8 3.582031-8 8s3.582031 8 8 8h64c4.417969 0 8-3.582031 8-8s-3.582031-8-8-8zm0 0"/><path d="m144 32h-8c-4.417969 0-8 3.582031-8 8s3.582031 8 8 8h8c4.417969 0 8-3.582031 8-8s-3.582031-8-8-8zm0 0"/><path d="m184 32h-8c-4.417969 0-8 3.582031-8 8s3.582031 8 8 8h8c4.417969 0 8-3.582031 8-8s-3.582031-8-8-8zm0 0"/><path d="m408 352h16c4.417969 0 8-3.582031 8-8s-3.582031-8-8-8h-16c-4.417969 0-8 3.582031-8 8s3.582031 8 8 8zm0 0"/></svg>